<svg version="1.1" id="Layer_1" xmlns="http://www.w3.org/2000/svg" xmlns:xlink="http://www.w3.org/1999/xlink" x="0px" y="0px"
	 width="100%" viewBox="0 0 174 174" enable-background="new 0 0 174 174" xml:space="preserve">
<path fill="#010101" opacity="1.000000" stroke="none" 
	d="
M175.000000,72.000000 
	C175.000000,106.666664 175.000000,140.833328 175.000000,175.000000 
	C117.000000,175.000000 59.000000,175.000000 1.000000,175.000000 
	C1.000000,117.000000 1.000000,59.000000 1.000000,1.000000 
	C59.000000,1.000000 117.000000,1.000000 175.000000,1.000000 
	C175.000000,24.500000 175.000000,48.000000 175.000000,72.000000 
M116.241455,167.415726 
	C114.216240,161.763519 112.191025,156.111313 110.001602,150.000793 
	C109.185196,150.000793 107.090065,150.000793 106.226891,150.000793 
	C104.224121,156.632584 102.389290,162.708252 100.556900,168.775864 
	C102.115204,168.775864 103.858566,168.775864 104.973846,168.775864 
	C105.083801,166.738388 104.564819,164.177841 105.408226,163.597610 
	C106.654671,162.740112 109.475800,162.571838 110.503860,163.439758 
	C111.563919,164.334671 111.279808,166.821762 111.675499,169.152359 
	C113.097519,168.946503 115.007744,168.669983 117.669861,168.930588 
	C119.715622,168.930588 121.761383,168.930588 123.399826,168.930588 
	C121.434441,162.341354 120.722534,156.338776 123.878578,150.106415 
	C121.577881,150.106415 119.391762,150.106415 118.472847,150.106415 
	C118.641884,155.578949 118.874626,160.746124 118.867950,165.912979 
	C118.867119,166.554489 117.594940,167.194351 116.241455,167.415726 
M76.794151,54.311840 
	C75.895744,52.554615 75.413727,50.309048 74.025955,49.125759 
	C68.394279,44.323914 62.484421,39.848335 56.318249,34.968376 
	C62.711155,29.946732 68.684937,25.475151 74.345314,20.636929 
	C75.600220,19.564293 75.748802,17.197342 76.406792,15.426355 
	C74.539597,15.622777 72.195374,15.167046 70.885384,16.125246 
	C64.181969,21.028507 57.767830,26.325432 51.205399,31.424030 
	C48.042671,33.881271 48.049805,36.139511 51.211288,38.593807 
	C57.645092,43.588448 63.901413,48.823654 70.504112,53.580456 
	C72.167114,54.778538 74.862396,54.543736 77.741676,55.549664 
	C77.105225,57.263515 76.075859,58.947502 75.942696,60.699604 
	C75.809212,62.455963 76.570023,64.280289 76.938873,66.074829 
	C78.422928,64.914223 80.644478,64.058815 81.271530,62.543560 
	C85.393059,52.584087 89.174500,42.483768 93.059311,32.426472 
	C96.166481,24.382410 99.354263,16.366911 102.260590,8.250762 
	C102.672157,7.101412 101.690254,5.453072 101.353325,4.035690 
	C99.891548,4.708771 98.239700,5.150145 97.035828,6.137640 
	C96.253288,6.779531 96.121674,8.216393 95.701317,9.298215 
	C90.177109,23.515385 84.672142,37.740120 79.094315,51.936222 
	C78.643936,53.082489 77.694290,54.032589 76.794151,54.311840 
M12.220551,113.434006 
	C12.220551,116.522423 12.220551,119.610840 12.220551,122.735909 
	C15.483841,122.735909 17.928785,122.735909 21.264730,122.735909 
	C21.264730,112.810104 21.264730,103.079369 21.264730,93.348640 
	C21.828993,93.277710 22.393257,93.206779 22.957520,93.135849 
	C26.124561,102.975334 29.291605,112.814827 32.441475,122.600967 
	C38.031940,122.600967 43.425518,122.600967 48.754730,122.600967 
	C48.754730,110.294434 48.754730,98.355957 48.754730,86.225128 
	C46.060215,86.225128 43.616795,86.225128 40.142975,86.225128 
	C40.142975,96.013603 40.142975,105.704063 40.142975,115.394531 
	C39.594437,115.460732 39.045898,115.526924 38.497360,115.593124 
	C37.967960,114.101509 37.397327,112.623055 36.916168,111.116035 
	C34.593880,103.842415 32.379421,96.532478 29.910013,89.309517 
	C29.476955,88.042831 28.070614,86.275368 27.010077,86.200089 
	C22.255501,85.862617 17.463448,86.053162 12.895793,86.053162 
	C12.563993,86.876755 12.342241,87.172203 12.340330,87.469070 
	C12.286715,95.797058 12.255325,104.125191 12.220551,113.434006 
M76.370583,123.011490 
	C77.320908,122.722160 78.298981,122.501862 79.217232,122.132736 
	C87.515106,118.796982 92.059593,110.188202 90.371246,101.055313 
	C88.592026,91.430878 81.734581,85.556931 72.011444,85.328690 
	C62.883595,85.114426 55.540733,90.730667 53.402065,99.562210 
	C49.909946,113.982788 60.311150,125.035774 76.370583,123.011490 
M141.239975,117.776505 
	C142.094528,116.495857 142.862656,114.190201 143.818405,114.109619 
	C148.273972,113.733963 152.988144,113.211273 157.173904,114.347343 
	C158.983719,114.838539 159.729813,119.214012 160.987259,121.811424 
	C161.183945,122.217728 161.531204,122.551147 161.679779,122.747604 
	C164.359909,122.747604 166.803085,122.747604 169.689468,122.747604 
	C166.704514,113.945442 163.830627,105.478729 160.962158,97.010178 
	C157.081146,85.552231 157.082825,85.548981 145.077484,86.060257 
	C144.590195,86.081017 144.108871,86.241508 143.397842,86.381615 
	C139.346313,98.375214 135.272598,110.434471 131.103333,122.776527 
	C134.100784,122.776527 136.720245,122.776527 139.526901,122.776527 
	C140.030960,121.338959 140.515945,119.955727 141.239975,117.776505 
M101.401588,113.186928 
	C105.071808,123.590195 105.071785,123.589790 115.712402,122.969620 
	C116.043953,122.950294 116.466629,123.087982 116.693542,122.930962 
	C117.530426,122.351891 118.746681,121.834999 119.032501,121.018845 
	C123.058784,109.522049 126.955185,97.979767 130.958115,86.228287 
	C127.783936,86.228287 125.158836,86.228287 122.484192,86.228287 
	C119.092873,96.207199 115.754807,106.029427 112.416733,115.851646 
	C111.853882,115.794624 111.291039,115.737602 110.728188,115.680580 
	C107.439011,105.873039 104.149841,96.065498 100.858841,86.252518 
	C97.993454,86.252518 95.396194,86.252518 92.424194,86.252518 
	C95.397186,95.179695 98.270660,103.808060 101.401588,113.186928 
M107.682579,23.798363 
	C112.307472,27.450279 116.932365,31.102198 121.885994,35.013691 
	C115.126045,40.343426 108.931313,45.085556 102.953209,50.086628 
	C102.004677,50.880127 102.031715,52.839783 101.607712,54.260288 
	C103.193367,54.426277 105.334450,55.339710 106.276543,54.639645 
	C113.607300,49.192196 120.812561,43.557281 127.751549,37.623569 
	C128.669601,36.838528 128.659454,33.108677 127.736244,32.325317 
	C120.647171,26.310061 113.284309,20.607836 105.823120,15.054752 
	C105.023834,14.459875 103.050667,15.442255 101.622047,15.692963 
	C101.895462,17.004854 101.776817,18.639490 102.530991,19.555611 
	C103.769325,21.059883 105.573914,22.098013 107.682579,23.798363 
M84.269287,158.393127 
	C85.068268,160.563950 85.798927,162.763763 86.701645,164.890549 
	C87.037621,165.682098 87.776138,166.302780 88.331093,167.001389 
	C89.103630,166.318085 90.209488,165.780945 90.585358,164.923721 
	C91.657104,162.479492 92.431740,159.904984 93.323265,157.381729 
	C93.738579,157.489212 94.153893,157.596680 94.569206,157.704163 
	C94.192535,161.308640 93.815857,164.913116 93.421005,168.691559 
	C94.867477,168.691559 96.854828,168.691559 99.187370,168.691559 
	C96.248878,165.659729 96.211990,153.001755 98.921616,150.282928 
	C95.001228,148.918823 92.712517,149.849136 91.783440,154.126495 
	C91.195457,156.833527 89.865540,159.379395 88.507286,162.945618 
	C87.110527,159.016968 86.119469,156.212601 85.116562,153.412476 
	C83.538528,149.006561 83.350670,148.933594 78.433159,150.724716 
	C80.580551,154.033890 80.720207,164.001770 78.697121,168.597565 
	C80.660782,168.597565 82.637596,168.597565 83.138351,168.597565 
	C83.415405,164.611069 83.654007,161.177673 84.269287,158.393127 
M43.644192,149.800781 
	C42.763950,149.938965 41.883713,150.077148 41.926895,150.070374 
	C41.926895,156.522324 41.926895,162.461197 41.926895,168.617874 
	C43.051270,168.617874 44.975323,168.617874 46.368011,168.617874 
	C45.879421,165.977539 45.445263,163.631348 44.952908,160.970673 
	C48.063259,160.970673 50.309586,160.970673 53.403667,160.970673 
	C52.713470,163.813156 52.123020,166.244858 51.507370,168.780319 
	C53.217701,168.780319 55.117786,168.780319 56.431580,168.780319 
	C56.431580,162.473953 56.431580,156.428558 56.431580,150.118332 
	C55.147083,150.118332 53.158356,150.118332 51.668030,150.118332 
	C52.208611,152.802780 52.700764,155.246735 53.222198,157.836121 
	C50.113293,157.836121 47.859394,157.836121 44.792072,157.836121 
	C45.472702,154.943588 46.043987,152.515778 46.683014,149.800049 
	C45.916561,149.800049 45.126671,149.800049 43.644192,149.800781 
M64.170097,155.837036 
	C64.645851,153.963501 65.121613,152.089951 65.578911,150.289093 
	C63.775543,150.289093 61.984768,150.289093 60.881672,150.289093 
	C61.233154,152.992111 61.771324,155.285431 61.789463,157.582855 
	C61.878155,168.816208 61.953995,169.043625 68.117836,169.014984 
	C74.004105,168.987640 74.082405,168.743118 74.174072,157.820297 
	C74.194733,155.358917 74.724846,152.901825 75.056664,150.141495 
	C73.838028,150.141495 71.995842,150.141495 71.462799,150.141495 
	C71.578674,154.553970 71.622208,158.654251 71.815178,162.747482 
	C71.956497,165.745285 70.680595,166.922653 67.682472,166.876526 
	C64.695351,166.830536 64.028389,165.256454 64.144287,162.715515 
	C64.235123,160.723984 64.166641,158.725159 64.170097,155.837036 
M127.303864,149.888733 
	C127.653534,156.146896 128.003204,162.405060 128.374771,169.055084 
	C128.992416,169.055084 130.787567,169.055099 132.582733,169.055099 
	C134.528564,169.055099 136.474411,169.055084 138.857971,169.055084 
	C138.697052,167.015381 138.580688,165.540573 138.486694,164.349213 
	C135.997513,165.488235 133.926788,166.435760 131.496094,167.548004 
	C130.527359,157.447128 130.788055,154.370804 132.953445,149.726044 
	C131.152954,149.726044 129.546661,149.726044 127.303864,149.888733 
z"/>
<path fill="#E8C99F" opacity="1.000000" stroke="none" 
	d="
M12.220417,112.943649 
	C12.255325,104.125191 12.286715,95.797058 12.340330,87.469070 
	C12.342241,87.172203 12.563993,86.876755 12.895793,86.053162 
	C17.463448,86.053162 22.255501,85.862617 27.010077,86.200089 
	C28.070614,86.275368 29.476955,88.042831 29.910013,89.309517 
	C32.379421,96.532478 34.593880,103.842415 36.916168,111.116035 
	C37.397327,112.623055 37.967960,114.101509 38.497360,115.593124 
	C39.045898,115.526924 39.594437,115.460732 40.142975,115.394531 
	C40.142975,105.704063 40.142975,96.013603 40.142975,86.225128 
	C43.616795,86.225128 46.060215,86.225128 48.754730,86.225128 
	C48.754730,98.355957 48.754730,110.294434 48.754730,122.600967 
	C43.425518,122.600967 38.031940,122.600967 32.441475,122.600967 
	C29.291605,112.814827 26.124561,102.975334 22.957520,93.135849 
	C22.393257,93.206779 21.828993,93.277710 21.264730,93.348640 
	C21.264730,103.079369 21.264730,112.810104 21.264730,122.735909 
	C17.928785,122.735909 15.483841,122.735909 12.220551,122.735909 
	C12.220551,119.610840 12.220551,116.522423 12.220417,112.943649 
z"/>
<path fill="#E8C99F" opacity="1.000000" stroke="none" 
	d="
M75.970222,123.065308 
	C60.311150,125.035774 49.909946,113.982788 53.402065,99.562210 
	C55.540733,90.730667 62.883595,85.114426 72.011444,85.328690 
	C81.734581,85.556931 88.592026,91.430878 90.371246,101.055313 
	C92.059593,110.188202 87.515106,118.796982 79.217232,122.132736 
	C78.298981,122.501862 77.320908,122.722160 75.970222,123.065308 
M75.589584,115.550331 
	C81.028976,112.775993 83.120071,108.160767 81.984322,101.436554 
	C81.072304,96.036896 77.532478,92.997147 72.032417,92.890549 
	C66.401665,92.781425 62.960922,95.478149 61.751759,100.948143 
	C59.538811,110.959023 64.497589,116.611435 75.589584,115.550331 
z"/>
<path fill="#E8C99F" opacity="1.000000" stroke="none" 
	d="
M141.120453,118.174500 
	C140.515945,119.955727 140.030960,121.338959 139.526901,122.776527 
	C136.720245,122.776527 134.100784,122.776527 131.103333,122.776527 
	C135.272598,110.434471 139.346313,98.375214 143.397842,86.381615 
	C144.108871,86.241508 144.590195,86.081017 145.077484,86.060257 
	C157.082825,85.548981 157.081146,85.552231 160.962158,97.010178 
	C163.830627,105.478729 166.704514,113.945442 169.689468,122.747604 
	C166.803085,122.747604 164.359909,122.747604 161.679779,122.747604 
	C161.531204,122.551147 161.183945,122.217728 160.987259,121.811424 
	C159.729813,119.214012 158.983719,114.838539 157.173904,114.347343 
	C152.988144,113.211273 148.273972,113.733963 143.818405,114.109619 
	C142.862656,114.190201 142.094528,116.495857 141.120453,118.174500 
M153.944214,100.840836 
	C152.945114,98.245605 151.946014,95.650383 150.946930,93.055161 
	C150.448227,93.106522 149.949524,93.157875 149.450821,93.209236 
	C148.063049,97.399261 146.675293,101.589294 145.194717,106.059540 
	C148.912994,106.059540 151.853317,106.059540 155.344635,106.059540 
	C154.876953,104.372353 154.500122,103.012939 153.944214,100.840836 
z"/>
<path fill="#E8C99F" opacity="1.000000" stroke="none" 
	d="
M101.272865,112.811676 
	C98.270660,103.808060 95.397186,95.179695 92.424194,86.252518 
	C95.396194,86.252518 97.993454,86.252518 100.858841,86.252518 
	C104.149841,96.065498 107.439011,105.873039 110.728188,115.680580 
	C111.291039,115.737602 111.853882,115.794624 112.416733,115.851646 
	C115.754807,106.029427 119.092873,96.207199 122.484192,86.228287 
	C125.158836,86.228287 127.783936,86.228287 130.958115,86.228287 
	C126.955185,97.979767 123.058784,109.522049 119.032501,121.018845 
	C118.746681,121.834999 117.530426,122.351891 116.693542,122.930962 
	C116.466629,123.087982 116.043953,122.950294 115.712402,122.969620 
	C105.071785,123.589790 105.071808,123.590195 101.272865,112.811676 
z"/>
<path fill="#13C6F5" opacity="1.000000" stroke="none" 
	d="
M76.976646,55.073849 
	C77.694290,54.032589 78.643936,53.082489 79.094315,51.936222 
	C84.672142,37.740120 90.177109,23.515385 95.701317,9.298215 
	C96.121674,8.216393 96.253288,6.779531 97.035828,6.137640 
	C98.239700,5.150145 99.891548,4.708771 101.353325,4.035689 
	C101.690254,5.453072 102.672157,7.101412 102.260590,8.250762 
	C99.354263,16.366911 96.166481,24.382410 93.059311,32.426472 
	C89.174500,42.483768 85.393059,52.584087 81.271530,62.543560 
	C80.644478,64.058815 78.422928,64.914223 76.938873,66.074829 
	C76.570023,64.280289 75.809212,62.455963 75.942696,60.699604 
	C76.075859,58.947502 77.105225,57.263515 77.381462,55.280777 
	C77.021248,55.011894 76.976646,55.073849 76.976646,55.073849 
z"/>
<path fill="#13C6F5" opacity="1.000000" stroke="none" 
	d="
M77.052277,54.989655 
	C74.862396,54.543736 72.167114,54.778538 70.504112,53.580456 
	C63.901413,48.823654 57.645092,43.588448 51.211288,38.593807 
	C48.049805,36.139511 48.042671,33.881271 51.205399,31.424030 
	C57.767830,26.325432 64.181969,21.028507 70.885384,16.125246 
	C72.195374,15.167046 74.539597,15.622777 76.406784,15.426354 
	C75.748802,17.197342 75.600220,19.564293 74.345314,20.636929 
	C68.684937,25.475151 62.711155,29.946732 56.318249,34.968376 
	C62.484421,39.848335 68.394279,44.323914 74.025955,49.125759 
	C75.413727,50.309048 75.895744,52.554615 76.885399,54.692844 
	C76.976646,55.073849 77.021248,55.011894 77.052277,54.989655 
z"/>
<path fill="#13C6F5" opacity="1.000000" stroke="none" 
	d="
M107.411156,23.565531 
	C105.573914,22.098013 103.769325,21.059883 102.530991,19.555611 
	C101.776817,18.639490 101.895462,17.004854 101.622047,15.692963 
	C103.050667,15.442255 105.023834,14.459875 105.823120,15.054752 
	C113.284309,20.607836 120.647171,26.310061 127.736244,32.325317 
	C128.659454,33.108677 128.669601,36.838528 127.751549,37.623569 
	C120.812561,43.557281 113.607300,49.192196 106.276543,54.639645 
	C105.334450,55.339710 103.193367,54.426277 101.607712,54.260288 
	C102.031715,52.839783 102.004677,50.880127 102.953209,50.086628 
	C108.931313,45.085556 115.126045,40.343426 121.885994,35.013691 
	C116.932365,31.102198 112.307472,27.450279 107.411156,23.565531 
z"/>
<path fill="#21BBE3" opacity="1.000000" stroke="none" 
	d="
M84.080948,158.068710 
	C83.654007,161.177673 83.415405,164.611069 83.138351,168.597565 
	C82.637596,168.597565 80.660782,168.597565 78.697121,168.597565 
	C80.720207,164.001770 80.580551,154.033890 78.433159,150.724716 
	C83.350670,148.933594 83.538528,149.006561 85.116562,153.412476 
	C86.119469,156.212601 87.110527,159.016968 88.507286,162.945618 
	C89.865540,159.379395 91.195457,156.833527 91.783440,154.126495 
	C92.712517,149.849136 95.001228,148.918823 98.921616,150.282928 
	C96.211990,153.001755 96.248878,165.659729 99.187370,168.691559 
	C96.854828,168.691559 94.867477,168.691559 93.421005,168.691559 
	C93.815857,164.913116 94.192535,161.308640 94.569206,157.704163 
	C94.153893,157.596680 93.738579,157.489212 93.323265,157.381729 
	C92.431740,159.904984 91.657104,162.479492 90.585358,164.923721 
	C90.209488,165.780945 89.103630,166.318085 88.331093,167.001389 
	C87.776138,166.302780 87.037621,165.682098 86.701645,164.890549 
	C85.798927,162.763763 85.068268,160.563950 84.080948,158.068710 
z"/>
<path fill="#1CBFEA" opacity="1.000000" stroke="none" 
	d="
M116.917969,168.393463 
	C115.007744,168.669983 113.097519,168.946503 111.675499,169.152359 
	C111.279808,166.821762 111.563919,164.334671 110.503860,163.439758 
	C109.475800,162.571838 106.654671,162.740112 105.408226,163.597610 
	C104.564819,164.177841 105.083801,166.738388 104.973846,168.775864 
	C103.858566,168.775864 102.115204,168.775864 100.556900,168.775864 
	C102.389290,162.708252 104.224121,156.632584 106.226891,150.000793 
	C107.090065,150.000793 109.185196,150.000793 110.001602,150.000793 
	C112.191025,156.111313 114.216240,161.763519 116.578003,167.710007 
	C116.914558,168.004288 116.917969,168.393478 116.917969,168.393463 
z"/>
<path fill="#1BBCE6" opacity="1.000000" stroke="none" 
	d="
M43.990486,149.800415 
	C45.126671,149.800049 45.916561,149.800049 46.683014,149.800049 
	C46.043987,152.515778 45.472702,154.943588 44.792072,157.836121 
	C47.859394,157.836121 50.113293,157.836121 53.222198,157.836121 
	C52.700764,155.246735 52.208611,152.802780 51.668030,150.118332 
	C53.158356,150.118332 55.147083,150.118332 56.431580,150.118332 
	C56.431580,156.428558 56.431580,162.473953 56.431580,168.780319 
	C55.117786,168.780319 53.217701,168.780319 51.507370,168.780319 
	C52.123020,166.244858 52.713470,163.813156 53.403667,160.970673 
	C50.309586,160.970673 48.063259,160.970673 44.952908,160.970673 
	C45.445263,163.631348 45.879421,165.977539 46.368011,168.617874 
	C44.975323,168.617874 43.051270,168.617874 41.926895,168.617874 
	C41.926895,162.461197 41.926895,156.522324 41.926895,150.070374 
	C41.883713,150.077148 42.763950,149.938965 43.990486,149.800415 
z"/>
<path fill="#10CBFC" opacity="1.000000" stroke="none" 
	d="
M64.169525,156.283310 
	C64.166641,158.725159 64.235123,160.723984 64.144287,162.715515 
	C64.028389,165.256454 64.695351,166.830536 67.682472,166.876526 
	C70.680595,166.922653 71.956497,165.745285 71.815178,162.747482 
	C71.622208,158.654251 71.578674,154.553970 71.462799,150.141495 
	C71.995842,150.141495 73.838028,150.141495 75.056664,150.141495 
	C74.724846,152.901825 74.194733,155.358917 74.174072,157.820297 
	C74.082405,168.743118 74.004105,168.987640 68.117836,169.014984 
	C61.953995,169.043625 61.878155,168.816208 61.789463,157.582855 
	C61.771324,155.285431 61.233154,152.992111 60.881672,150.289093 
	C61.984768,150.289093 63.775543,150.289093 65.578911,150.289093 
	C65.121613,152.089951 64.645851,153.963501 64.169525,156.283310 
z"/>
<path fill="#1DB7DF" opacity="1.000000" stroke="none" 
	d="
M127.622116,149.807388 
	C129.546661,149.726044 131.152954,149.726044 132.953445,149.726044 
	C130.788055,154.370804 130.527359,157.447128 131.496094,167.548004 
	C133.926788,166.435760 135.997513,165.488235 138.486694,164.349213 
	C138.580688,165.540573 138.697052,167.015381 138.857971,169.055084 
	C136.474411,169.055084 134.528564,169.055099 132.582733,169.055099 
	C130.787567,169.055099 128.992416,169.055084 128.374771,169.055084 
	C128.003204,162.405060 127.653534,156.146896 127.622116,149.807388 
z"/>
<path fill="#27BDE4" opacity="1.000000" stroke="none" 
	d="
M117.293915,168.662033 
	C116.917969,168.393478 116.914558,168.004288 116.913216,167.919647 
	C117.594940,167.194351 118.867119,166.554489 118.867950,165.912979 
	C118.874626,160.746124 118.641884,155.578949 118.472847,150.106415 
	C119.391762,150.106415 121.577881,150.106415 123.878578,150.106415 
	C120.722534,156.338776 121.434441,162.341354 123.399826,168.930588 
	C121.761383,168.930588 119.715622,168.930588 117.293915,168.662033 
z"/>
<path fill="#040404" opacity="1.000000" stroke="none" 
	d="
M75.208000,115.701004 
	C64.497589,116.611435 59.538811,110.959023 61.751759,100.948143 
	C62.960922,95.478149 66.401665,92.781425 72.032417,92.890549 
	C77.532478,92.997147 81.072304,96.036896 81.984322,101.436554 
	C83.120071,108.160767 81.028976,112.775993 75.208000,115.701004 
z"/>
<path fill="#080807" opacity="1.000000" stroke="none" 
	d="
M154.033752,101.247185 
	C154.500122,103.012939 154.876953,104.372353 155.344635,106.059540 
	C151.853317,106.059540 148.912994,106.059540 145.194717,106.059540 
	C146.675293,101.589294 148.063049,97.399261 149.450821,93.209236 
	C149.949524,93.157875 150.448227,93.106522 150.946930,93.055161 
	C151.946014,95.650383 152.945114,98.245605 154.033752,101.247185 
z"/>
</svg>